<?xml version="1.0" encoding="UTF-8" standalone="no"?>
<svg
   xmlns:dc="http://purl.org/dc/elements/1.1/"
   xmlns:cc="http://creativecommons.org/ns#"
   xmlns:rdf="http://www.w3.org/1999/02/22-rdf-syntax-ns#"
   xmlns:svg="http://www.w3.org/2000/svg"
   xmlns="http://www.w3.org/2000/svg"
   xmlns:sodipodi="http://sodipodi.sourceforge.net/DTD/sodipodi-0.dtd"
   xmlns:inkscape="http://www.inkscape.org/namespaces/inkscape"
   version="1.1"
   x="0px"
   y="0px"
   viewBox="0 0 22.001062 59.999805"
   id="svg857"
   sodipodi:docname="tie.svg"
   width="22.001062"
   height="59.999805"
   inkscape:version="1.0 (4035a4fb49, 2020-05-01)">
  <metadata
     id="metadata863">
    <rdf:RDF>
      <cc:Work
         rdf:about="">
        <dc:format>image/svg+xml</dc:format>
        <dc:type
           rdf:resource="http://purl.org/dc/dcmitype/StillImage" />
        <dc:title />
      </cc:Work>
    </rdf:RDF>
  </metadata>
  <defs
     id="defs861" />
  <sodipodi:namedview
     inkscape:document-rotation="0"
     pagecolor="#ffffff"
     bordercolor="#666666"
     borderopacity="1"
     objecttolerance="10"
     gridtolerance="10"
     guidetolerance="10"
     inkscape:pageopacity="0"
     inkscape:pageshadow="2"
     inkscape:window-width="2560"
     inkscape:window-height="1361"
     id="namedview859"
     showgrid="false"
     fit-margin-top="0"
     fit-margin-left="0"
     fit-margin-right="0"
     fit-margin-bottom="0"
     inkscape:zoom="22.627417"
     inkscape:cx="23.71542"
     inkscape:cy="29.452867"
     inkscape:window-x="-9"
     inkscape:window-y="-9"
     inkscape:window-maximized="1"
     inkscape:current-layer="svg857" />
  <g
     transform="translate(-19.999469,-990.36218)"
     id="g851">
    <path
       transform="translate(0,988.36218)"
       d="m 21,2 a 1.0001,1.0001 0 0 0 -0.857422,1.515625 l 5.8125,9.6875 -5.943359,37.642578 a 1.0001,1.0001 0 0 0 0.28125,0.861328 l 10,10 a 1.0001,1.0001 0 0 0 1.414062,0 l 10,-10 a 1.0001,1.0001 0 0 0 0.28125,-0.861328 l -5.943359,-37.642578 5.8125,-9.6875 A 1.0001,1.0001 0 0 0 41,2 Z m 1.765625,2 h 16.46875 l -4.800781,8 h -6.867188 z m 5.089844,10 h 6.291015 L 39.933594,50.654297 31,59.585938 l -8.931641,-8.931641 1.25,-7.921875 5.97461,5.974609 c 0.942508,0.98168 2.395742,-0.471554 1.414062,-1.414062 l -6.998047,-7.029297 0.427735,-2.712891 3.15625,3.15625 c 0.942508,0.98168 2.395742,-0.471554 1.414062,-1.414062 l -4.160156,-4.337891 0.408203,-2.585937 8.337891,8.33789 c 0.942508,0.98168 2.395742,-0.471554 1.414062,-1.414062 l -9.365234,-9.365235 z m 4.134765,34.990234 c -0.897417,2.36e-4 -1.340377,1.090886 -0.697265,1.716797 l 2,2 c 0.942508,0.98168 2.395742,-0.471554 1.414062,-1.414062 l -2,-2 C 32.51876,49.099436 32.260236,48.99025 31.990234,48.990234 Z"
       style="color:#000000;font-style:normal;font-variant:normal;font-weight:normal;font-stretch:normal;font-size:medium;line-height:normal;font-family:sans-serif;text-indent:0;text-align:start;text-decoration:none;text-decoration-line:none;text-decoration-style:solid;text-decoration-color:#000000;letter-spacing:normal;word-spacing:normal;text-transform:none;writing-mode:lr-tb;direction:ltr;baseline-shift:baseline;text-anchor:start;white-space:normal;clip-rule:nonzero;display:inline;overflow:visible;visibility:visible;opacity:1;isolation:auto;mix-blend-mode:normal;color-interpolation:sRGB;color-interpolation-filters:linearRGB;solid-color:#000000;solid-opacity:1;fill:#000000;fill-opacity:1;fill-rule:nonzero;stroke:none;stroke-width:2;stroke-linecap:round;stroke-linejoin:round;stroke-miterlimit:4;stroke-dasharray:none;stroke-dashoffset:0;stroke-opacity:1;color-rendering:auto;image-rendering:auto;shape-rendering:auto;text-rendering:auto;enable-background:accumulate"
       id="path849" />
  </g>
  <path
     sodipodi:nodetypes="ccsscccccc"
     id="path847"
     d="M 5.1268106,5.946516 2.766156,2 6.9155608,2.0004521 C 9.1381951,2.0006943 12.795285,1.966753 15.042485,1.9783551 L 19.234906,2 16.836746,6.0158738 14.434125,10 11.037331,9.9955349 7.566937,10 Z"
     style="fill:#ff7f2a;stroke-width:0.0793651" />
  <path
     sodipodi:nodetypes="sssscccccscssscsssscssscccsccsscccccccsssscsccscss"
     id="path850"
     d="M 6.5870485,53.211842 C 3.5851208,50.236704 2.0648433,48.768727 2.0642878,48.657289 c -7.93e-4,-0.159041 1.1534383,-7.407156 1.247862,-7.871089 0.044828,-0.220252 0.2641671,0.224554 3.2758355,3.169327 l 3.0970107,3.02822 0.2998257,0.06241 C 10.650814,46.878001 11.036053,46.58863 11.03329,45.92294 L 10.949756,45.642309 8.4517035,43.043845 C 7.0369853,41.638288 5.4201909,39.985319 4.8197362,39.381013 L 3.709515,38.263672 3.8833754,37.001197 c 0.00755,-0.05482 0.2538745,-1.473854 0.2292571,-1.495804 -0.032326,-0.02882 0.8404668,0.871003 1.7287331,1.740587 0.8882662,0.869586 1.6463564,1.635324 1.7419367,1.68255 0.2919279,0.144231 0.7820451,0.08169 1.0166064,-0.106605 C 9.0071873,38.494981 9.0825546,37.944046 8.9173979,37.551533 8.875513,37.451989 8.0687275,36.680028 7.237447,35.790515 6.4098809,34.904976 5.4262956,33.863916 5.1205925,33.547796 L 4.547406,32.955078 4.7328197,31.792018 c 0.1030772,-0.646581 0.2266955,-1.622096 0.2405174,-1.41323 0.00175,0.02643 2.9944951,2.988933 4.3483161,4.332295 l 4.2588658,4.225964 0.371373,0.03456 c 0.18902,0.02484 0.471175,-0.07705 0.593155,-0.141833 0.412357,-0.219011 0.527479,-0.767235 0.422966,-1.176735 -0.03562,-0.139578 -2.066393,-2.192834 -4.859976,-4.945709 L 5.342328,27.927734 6.5253402,20.249883 C 7.1783741,16.011637 7.7882347,12.432849 7.810612,12.289914 L 7.856,12 10.889815,11.98526 14.147015,12 l 2.908978,18.236297 2.878132,18.418 -4.349724,4.369836 -4.58387,4.561805 z m 7.7893805,-2.24211 c 0.223935,-0.255925 0.847977,-0.51768 0.601734,-1.292419 -0.08502,-0.267493 -1.800576,-1.916575 -2.525751,-2.562517 -0.07962,-0.07092 -0.239986,-0.07595 -0.422584,-0.07378 -0.281594,0.0034 -0.431961,-0.04521 -0.700249,0.228006 -0.307251,0.312905 -0.315196,0.334793 -0.277439,0.764403 l 0.03886,0.442276 1.189332,1.180028 c 1.056582,1.048319 1.401193,1.373686 1.668345,1.380911 0.184575,-0.0027 0.464562,-0.108977 0.427745,-0.0669 z"
     style="fill:#ff7f2a;stroke-width:0.0794196" />
</svg>
