<?xml version="1.0" encoding="UTF-8" standalone="no"?>
<svg
   xmlns:dc="http://purl.org/dc/elements/1.1/"
   xmlns:cc="http://creativecommons.org/ns#"
   xmlns:rdf="http://www.w3.org/1999/02/22-rdf-syntax-ns#"
   xmlns:svg="http://www.w3.org/2000/svg"
   xmlns="http://www.w3.org/2000/svg"
   xmlns:sodipodi="http://sodipodi.sourceforge.net/DTD/sodipodi-0.dtd"
   xmlns:inkscape="http://www.inkscape.org/namespaces/inkscape"
   sodipodi:docname="ttt-circle.svg"
   inkscape:version="1.0 (4035a4fb49, 2020-05-01)"
   id="svg8"
   version="1.1"
   viewBox="0 0 53.663651 53.663651"
   height="53.663651mm"
   width="53.663651mm">
  <defs
     id="defs2" />
  <sodipodi:namedview
     inkscape:window-maximized="0"
     inkscape:window-y="211"
     inkscape:window-x="3328"
     inkscape:window-height="1208"
     inkscape:window-width="1424"
     inkscape:guide-bbox="true"
     showguides="true"
     fit-margin-bottom="0"
     fit-margin-right="0"
     fit-margin-left="0"
     fit-margin-top="0"
     showgrid="false"
     inkscape:document-rotation="0"
     inkscape:current-layer="layer1"
     inkscape:document-units="mm"
     inkscape:cy="142.08578"
     inkscape:cx="141.88355"
     inkscape:zoom="1.979899"
     inkscape:pageshadow="2"
     inkscape:pageopacity="0.0"
     borderopacity="1.0"
     bordercolor="#666666"
     pagecolor="#ffffff"
     id="base">
    <sodipodi:guide
       id="guide847"
       orientation="0,-1"
       position="26.994223,84.800553" />
  </sodipodi:namedview>
  <metadata
     id="metadata5">
    <rdf:RDF>
      <cc:Work
         rdf:about="">
        <dc:format>image/svg+xml</dc:format>
        <dc:type
           rdf:resource="http://purl.org/dc/dcmitype/StillImage" />
        <dc:title></dc:title>
      </cc:Work>
    </rdf:RDF>
  </metadata>
  <g
     transform="translate(-3.2717896,2.4745026)"
     id="layer1"
     inkscape:groupmode="layer"
     inkscape:label="Layer 1">
    <path
       transform="matrix(0.26458333,0,0,0.26458333,3.2717896,-2.4745026)"
       d="M 101.31445 0 A 101.41162 101.41162 0 0 0 0 101.41211 A 101.41162 101.41162 0 0 0 101.41211 202.82422 A 101.41162 101.41162 0 0 0 202.82422 101.41211 A 101.41162 101.41162 0 0 0 101.41211 0 A 101.41162 101.41162 0 0 0 101.31445 0 z M 101.41211 62.361328 A 39.049421 39.049421 0 0 1 101.9375 62.365234 A 39.049421 39.049421 0 0 1 102.46289 62.376953 A 39.049421 39.049421 0 0 1 102.98828 62.394531 A 39.049421 39.049421 0 0 1 103.51172 62.417969 A 39.049421 39.049421 0 0 1 104.03711 62.451172 A 39.049421 39.049421 0 0 1 104.56055 62.490234 A 39.049421 39.049421 0 0 1 105.08398 62.535156 A 39.049421 39.049421 0 0 1 105.60742 62.587891 A 39.049421 39.049421 0 0 1 106.12891 62.648438 A 39.049421 39.049421 0 0 1 106.65039 62.714844 A 39.049421 39.049421 0 0 1 107.16992 62.789062 A 39.049421 39.049421 0 0 1 107.68945 62.871094 A 39.049421 39.049421 0 0 1 108.20703 62.958984 A 39.049421 39.049421 0 0 1 108.72461 63.052734 A 39.049421 39.049421 0 0 1 109.24023 63.154297 A 39.049421 39.049421 0 0 1 109.75391 63.263672 A 39.049421 39.049421 0 0 1 110.26758 63.378906 A 39.049421 39.049421 0 0 1 110.77734 63.501953 A 39.049421 39.049421 0 0 1 111.28711 63.630859 A 39.049421 39.049421 0 0 1 111.79492 63.767578 A 39.049421 39.049421 0 0 1 112.30078 63.910156 A 39.049421 39.049421 0 0 1 112.80469 64.060547 A 39.049421 39.049421 0 0 1 113.30469 64.216797 A 39.049421 39.049421 0 0 1 113.80469 64.380859 A 39.049421 39.049421 0 0 1 114.30273 64.550781 A 39.049421 39.049421 0 0 1 114.79688 64.728516 A 39.049421 39.049421 0 0 1 115.28906 64.912109 A 39.049421 39.049421 0 0 1 115.7793 65.101562 A 39.049421 39.049421 0 0 1 116.26562 65.298828 A 39.049421 39.049421 0 0 1 116.75195 65.501953 A 39.049421 39.049421 0 0 1 117.23242 65.710938 A 39.049421 39.049421 0 0 1 117.71094 65.927734 A 39.049421 39.049421 0 0 1 118.1875 66.150391 A 39.049421 39.049421 0 0 1 118.66016 66.378906 A 39.049421 39.049421 0 0 1 119.13086 66.613281 A 39.049421 39.049421 0 0 1 119.59766 66.855469 A 39.049421 39.049421 0 0 1 120.06055 67.103516 A 39.049421 39.049421 0 0 1 120.52148 67.357422 A 39.049421 39.049421 0 0 1 120.97656 67.617188 A 39.049421 39.049421 0 0 1 121.42969 67.882812 A 39.049421 39.049421 0 0 1 121.87891 68.15625 A 39.049421 39.049421 0 0 1 122.32422 68.435547 A 39.049421 39.049421 0 0 1 122.76758 68.71875 A 39.049421 39.049421 0 0 1 123.20508 69.009766 A 39.049421 39.049421 0 0 1 123.63867 69.304688 A 39.049421 39.049421 0 0 1 124.06836 69.607422 A 39.049421 39.049421 0 0 1 124.49414 69.916016 A 39.049421 39.049421 0 0 1 124.91602 70.228516 A 39.049421 39.049421 0 0 1 125.33398 70.548828 A 39.049421 39.049421 0 0 1 125.74805 70.873047 A 39.049421 39.049421 0 0 1 126.15625 71.203125 A 39.049421 39.049421 0 0 1 126.56055 71.539062 A 39.049421 39.049421 0 0 1 126.96094 71.878906 A 39.049421 39.049421 0 0 1 127.35547 72.226562 A 39.049421 39.049421 0 0 1 127.74609 72.578125 A 39.049421 39.049421 0 0 1 128.13086 72.935547 A 39.049421 39.049421 0 0 1 128.51172 73.296875 A 39.049421 39.049421 0 0 1 128.88672 73.664062 A 39.049421 39.049421 0 0 1 129.25781 74.037109 A 39.049421 39.049421 0 0 1 129.625 74.414062 A 39.049421 39.049421 0 0 1 129.98438 74.794922 A 39.049421 39.049421 0 0 1 130.33984 75.181641 A 39.049421 39.049421 0 0 1 130.69141 75.574219 A 39.049421 39.049421 0 0 1 131.03516 75.970703 A 39.049421 39.049421 0 0 1 131.375 76.371094 A 39.049421 39.049421 0 0 1 131.70898 76.777344 A 39.049421 39.049421 0 0 1 132.03906 77.1875 A 39.049421 39.049421 0 0 1 132.36133 77.601562 A 39.049421 39.049421 0 0 1 132.67969 78.019531 A 39.049421 39.049421 0 0 1 132.99219 78.443359 A 39.049421 39.049421 0 0 1 133.29688 78.869141 A 39.049421 39.049421 0 0 1 133.59766 79.300781 A 39.049421 39.049421 0 0 1 133.89258 79.736328 A 39.049421 39.049421 0 0 1 134.18164 80.175781 A 39.049421 39.049421 0 0 1 134.46484 80.617188 A 39.049421 39.049421 0 0 1 134.74023 81.064453 A 39.049421 39.049421 0 0 1 135.01172 81.515625 A 39.049421 39.049421 0 0 1 135.27734 81.96875 A 39.049421 39.049421 0 0 1 135.53516 82.425781 A 39.049421 39.049421 0 0 1 135.78711 82.886719 A 39.049421 39.049421 0 0 1 136.0332 83.351562 A 39.049421 39.049421 0 0 1 136.27344 83.818359 A 39.049421 39.049421 0 0 1 136.50781 84.289062 A 39.049421 39.049421 0 0 1 136.73438 84.763672 A 39.049421 39.049421 0 0 1 136.95508 85.240234 A 39.049421 39.049421 0 0 1 137.16992 85.720703 A 39.049421 39.049421 0 0 1 137.37695 86.203125 A 39.049421 39.049421 0 0 1 137.57812 86.6875 A 39.049421 39.049421 0 0 1 137.77344 87.175781 A 39.049421 39.049421 0 0 1 137.96289 87.666016 A 39.049421 39.049421 0 0 1 138.14453 88.160156 A 39.049421 39.049421 0 0 1 138.31836 88.654297 A 39.049421 39.049421 0 0 1 138.48633 89.152344 A 39.049421 39.049421 0 0 1 138.64844 89.652344 A 39.049421 39.049421 0 0 1 138.80273 90.154297 A 39.049421 39.049421 0 0 1 138.95117 90.658203 A 39.049421 39.049421 0 0 1 139.0918 91.166016 A 39.049421 39.049421 0 0 1 139.22656 91.673828 A 39.049421 39.049421 0 0 1 139.35547 92.183594 A 39.049421 39.049421 0 0 1 139.47461 92.693359 A 39.049421 39.049421 0 0 1 139.58984 93.207031 A 39.049421 39.049421 0 0 1 139.69727 93.722656 A 39.049421 39.049421 0 0 1 139.79688 94.238281 A 39.049421 39.049421 0 0 1 139.88867 94.753906 A 39.049421 39.049421 0 0 1 139.97461 95.273438 A 39.049421 39.049421 0 0 1 140.05469 95.792969 A 39.049421 39.049421 0 0 1 140.12695 96.3125 A 39.049421 39.049421 0 0 1 140.19141 96.833984 A 39.049421 39.049421 0 0 1 140.25 97.357422 A 39.049421 39.049421 0 0 1 140.30078 97.878906 A 39.049421 39.049421 0 0 1 140.3457 98.404297 A 39.049421 39.049421 0 0 1 140.38281 98.927734 A 39.049421 39.049421 0 0 1 140.41211 99.451172 A 39.049421 39.049421 0 0 1 140.43555 99.976562 A 39.049421 39.049421 0 0 1 140.45117 100.50195 A 39.049421 39.049421 0 0 1 140.45898 101.02734 A 39.049421 39.049421 0 0 1 140.46094 101.41211 A 39.049421 39.049421 0 0 1 140.45703 101.9375 A 39.049421 39.049421 0 0 1 140.44727 102.46289 A 39.049421 39.049421 0 0 1 140.42969 102.98828 A 39.049421 39.049421 0 0 1 140.4043 103.51172 A 39.049421 39.049421 0 0 1 140.37305 104.03711 A 39.049421 39.049421 0 0 1 140.33398 104.56055 A 39.049421 39.049421 0 0 1 140.28711 105.08398 A 39.049421 39.049421 0 0 1 140.23438 105.60742 A 39.049421 39.049421 0 0 1 140.17578 106.12891 A 39.049421 39.049421 0 0 1 140.10742 106.65039 A 39.049421 39.049421 0 0 1 140.0332 107.16992 A 39.049421 39.049421 0 0 1 139.95312 107.68945 A 39.049421 39.049421 0 0 1 139.86523 108.20703 A 39.049421 39.049421 0 0 1 139.76953 108.72461 A 39.049421 39.049421 0 0 1 139.66797 109.24023 A 39.049421 39.049421 0 0 1 139.55859 109.75391 A 39.049421 39.049421 0 0 1 139.44336 110.26758 A 39.049421 39.049421 0 0 1 139.32031 110.77734 A 39.049421 39.049421 0 0 1 139.19141 111.28711 A 39.049421 39.049421 0 0 1 139.05469 111.79492 A 39.049421 39.049421 0 0 1 138.91211 112.30078 A 39.049421 39.049421 0 0 1 138.76172 112.80469 A 39.049421 39.049421 0 0 1 138.60547 113.30469 A 39.049421 39.049421 0 0 1 138.44141 113.80469 A 39.049421 39.049421 0 0 1 138.27148 114.30273 A 39.049421 39.049421 0 0 1 138.0957 114.79688 A 39.049421 39.049421 0 0 1 137.91211 115.28906 A 39.049421 39.049421 0 0 1 137.72266 115.7793 A 39.049421 39.049421 0 0 1 137.52539 116.26562 A 39.049421 39.049421 0 0 1 137.32227 116.75195 A 39.049421 39.049421 0 0 1 137.11328 117.23242 A 39.049421 39.049421 0 0 1 136.89648 117.71094 A 39.049421 39.049421 0 0 1 136.67383 118.1875 A 39.049421 39.049421 0 0 1 136.44531 118.66016 A 39.049421 39.049421 0 0 1 136.20898 119.13086 A 39.049421 39.049421 0 0 1 135.96875 119.59766 A 39.049421 39.049421 0 0 1 135.7207 120.06055 A 39.049421 39.049421 0 0 1 135.4668 120.52148 A 39.049421 39.049421 0 0 1 135.20508 120.97656 A 39.049421 39.049421 0 0 1 134.93945 121.42969 A 39.049421 39.049421 0 0 1 134.66797 121.87891 A 39.049421 39.049421 0 0 1 134.38867 122.32422 A 39.049421 39.049421 0 0 1 134.10352 122.76758 A 39.049421 39.049421 0 0 1 133.81445 123.20508 A 39.049421 39.049421 0 0 1 133.51758 123.63867 A 39.049421 39.049421 0 0 1 133.21484 124.06836 A 39.049421 39.049421 0 0 1 132.9082 124.49414 A 39.049421 39.049421 0 0 1 132.59375 124.91602 A 39.049421 39.049421 0 0 1 132.27539 125.33398 A 39.049421 39.049421 0 0 1 131.95117 125.74805 A 39.049421 39.049421 0 0 1 131.62109 126.15625 A 39.049421 39.049421 0 0 1 131.28516 126.56055 A 39.049421 39.049421 0 0 1 130.94336 126.96094 A 39.049421 39.049421 0 0 1 130.59766 127.35547 A 39.049421 39.049421 0 0 1 130.24609 127.74609 A 39.049421 39.049421 0 0 1 129.88867 128.13086 A 39.049421 39.049421 0 0 1 129.52539 128.51172 A 39.049421 39.049421 0 0 1 129.1582 128.88672 A 39.049421 39.049421 0 0 1 128.78711 129.25781 A 39.049421 39.049421 0 0 1 128.41016 129.625 A 39.049421 39.049421 0 0 1 128.02734 129.98438 A 39.049421 39.049421 0 0 1 127.64062 130.33984 A 39.049421 39.049421 0 0 1 127.25 130.69141 A 39.049421 39.049421 0 0 1 126.85352 131.03516 A 39.049421 39.049421 0 0 1 126.45117 131.375 A 39.049421 39.049421 0 0 1 126.04688 131.70898 A 39.049421 39.049421 0 0 1 125.63672 132.03906 A 39.049421 39.049421 0 0 1 125.22266 132.36133 A 39.049421 39.049421 0 0 1 124.80273 132.67969 A 39.049421 39.049421 0 0 1 124.38086 132.99219 A 39.049421 39.049421 0 0 1 123.95312 133.29688 A 39.049421 39.049421 0 0 1 123.52344 133.59766 A 39.049421 39.049421 0 0 1 123.08789 133.89258 A 39.049421 39.049421 0 0 1 122.64844 134.18164 A 39.049421 39.049421 0 0 1 122.20508 134.46484 A 39.049421 39.049421 0 0 1 121.75977 134.74023 A 39.049421 39.049421 0 0 1 121.30859 135.01172 A 39.049421 39.049421 0 0 1 120.85547 135.27734 A 39.049421 39.049421 0 0 1 120.39648 135.53516 A 39.049421 39.049421 0 0 1 119.93555 135.78711 A 39.049421 39.049421 0 0 1 119.47266 136.0332 A 39.049421 39.049421 0 0 1 119.00391 136.27344 A 39.049421 39.049421 0 0 1 118.5332 136.50781 A 39.049421 39.049421 0 0 1 118.06055 136.73438 A 39.049421 39.049421 0 0 1 117.58398 136.95508 A 39.049421 39.049421 0 0 1 117.10352 137.16992 A 39.049421 39.049421 0 0 1 116.62109 137.37695 A 39.049421 39.049421 0 0 1 116.13477 137.57812 A 39.049421 39.049421 0 0 1 115.64648 137.77344 A 39.049421 39.049421 0 0 1 115.15625 137.96289 A 39.049421 39.049421 0 0 1 114.66406 138.14453 A 39.049421 39.049421 0 0 1 114.16797 138.31836 A 39.049421 39.049421 0 0 1 113.66992 138.48633 A 39.049421 39.049421 0 0 1 113.16992 138.64844 A 39.049421 39.049421 0 0 1 112.66797 138.80273 A 39.049421 39.049421 0 0 1 112.16406 138.95117 A 39.049421 39.049421 0 0 1 111.6582 139.0918 A 39.049421 39.049421 0 0 1 111.15039 139.22656 A 39.049421 39.049421 0 0 1 110.64062 139.35547 A 39.049421 39.049421 0 0 1 110.12891 139.47461 A 39.049421 39.049421 0 0 1 109.61523 139.58984 A 39.049421 39.049421 0 0 1 109.10156 139.69727 A 39.049421 39.049421 0 0 1 108.58594 139.79688 A 39.049421 39.049421 0 0 1 108.06836 139.88867 A 39.049421 39.049421 0 0 1 107.55078 139.97461 A 39.049421 39.049421 0 0 1 107.03125 140.05469 A 39.049421 39.049421 0 0 1 106.50977 140.12695 A 39.049421 39.049421 0 0 1 105.98828 140.19141 A 39.049421 39.049421 0 0 1 105.4668 140.25 A 39.049421 39.049421 0 0 1 104.94336 140.30078 A 39.049421 39.049421 0 0 1 104.41992 140.3457 A 39.049421 39.049421 0 0 1 103.89648 140.38281 A 39.049421 39.049421 0 0 1 103.37109 140.41211 A 39.049421 39.049421 0 0 1 102.8457 140.43555 A 39.049421 39.049421 0 0 1 102.32031 140.45117 A 39.049421 39.049421 0 0 1 101.79492 140.45898 A 39.049421 39.049421 0 0 1 101.41211 140.46094 A 39.049421 39.049421 0 0 1 100.88672 140.45703 A 39.049421 39.049421 0 0 1 100.36133 140.44727 A 39.049421 39.049421 0 0 1 99.835938 140.42969 A 39.049421 39.049421 0 0 1 99.310547 140.4043 A 39.049421 39.049421 0 0 1 98.787109 140.37305 A 39.049421 39.049421 0 0 1 98.261719 140.33398 A 39.049421 39.049421 0 0 1 97.738281 140.28711 A 39.049421 39.049421 0 0 1 97.216797 140.23438 A 39.049421 39.049421 0 0 1 96.693359 140.17578 A 39.049421 39.049421 0 0 1 96.171875 140.10742 A 39.049421 39.049421 0 0 1 95.652344 140.0332 A 39.049421 39.049421 0 0 1 95.132812 139.95312 A 39.049421 39.049421 0 0 1 94.615234 139.86523 A 39.049421 39.049421 0 0 1 94.097656 139.76953 A 39.049421 39.049421 0 0 1 93.582031 139.66797 A 39.049421 39.049421 0 0 1 93.068359 139.55859 A 39.049421 39.049421 0 0 1 92.556641 139.44336 A 39.049421 39.049421 0 0 1 92.044922 139.32031 A 39.049421 39.049421 0 0 1 91.535156 139.19141 A 39.049421 39.049421 0 0 1 91.029297 139.05469 A 39.049421 39.049421 0 0 1 90.523438 138.91211 A 39.049421 39.049421 0 0 1 90.019531 138.76172 A 39.049421 39.049421 0 0 1 89.517578 138.60547 A 39.049421 39.049421 0 0 1 89.017578 138.44141 A 39.049421 39.049421 0 0 1 88.521484 138.27148 A 39.049421 39.049421 0 0 1 88.027344 138.0957 A 39.049421 39.049421 0 0 1 87.533203 137.91211 A 39.049421 39.049421 0 0 1 87.044922 137.72266 A 39.049421 39.049421 0 0 1 86.556641 137.52539 A 39.049421 39.049421 0 0 1 86.072266 137.32227 A 39.049421 39.049421 0 0 1 85.589844 137.11328 A 39.049421 39.049421 0 0 1 85.111328 136.89648 A 39.049421 39.049421 0 0 1 84.634766 136.67383 A 39.049421 39.049421 0 0 1 84.162109 136.44531 A 39.049421 39.049421 0 0 1 83.693359 136.20898 A 39.049421 39.049421 0 0 1 83.226562 135.96875 A 39.049421 39.049421 0 0 1 82.761719 135.7207 A 39.049421 39.049421 0 0 1 82.302734 135.4668 A 39.049421 39.049421 0 0 1 81.845703 135.20508 A 39.049421 39.049421 0 0 1 81.392578 134.93945 A 39.049421 39.049421 0 0 1 80.943359 134.66797 A 39.049421 39.049421 0 0 1 80.498047 134.38867 A 39.049421 39.049421 0 0 1 80.056641 134.10352 A 39.049421 39.049421 0 0 1 79.619141 133.81445 A 39.049421 39.049421 0 0 1 79.183594 133.51758 A 39.049421 39.049421 0 0 1 78.753906 133.21484 A 39.049421 39.049421 0 0 1 78.328125 132.9082 A 39.049421 39.049421 0 0 1 77.90625 132.59375 A 39.049421 39.049421 0 0 1 77.488281 132.27539 A 39.049421 39.049421 0 0 1 77.076172 131.95117 A 39.049421 39.049421 0 0 1 76.667969 131.62109 A 39.049421 39.049421 0 0 1 76.263672 131.28516 A 39.049421 39.049421 0 0 1 75.863281 130.94336 A 39.049421 39.049421 0 0 1 75.46875 130.59766 A 39.049421 39.049421 0 0 1 75.078125 130.24609 A 39.049421 39.049421 0 0 1 74.691406 129.88867 A 39.049421 39.049421 0 0 1 74.310547 129.52539 A 39.049421 39.049421 0 0 1 73.935547 129.1582 A 39.049421 39.049421 0 0 1 73.564453 128.78711 A 39.049421 39.049421 0 0 1 73.199219 128.41016 A 39.049421 39.049421 0 0 1 72.837891 128.02734 A 39.049421 39.049421 0 0 1 72.482422 127.64062 A 39.049421 39.049421 0 0 1 72.132812 127.25 A 39.049421 39.049421 0 0 1 71.787109 126.85352 A 39.049421 39.049421 0 0 1 71.447266 126.45117 A 39.049421 39.049421 0 0 1 71.113281 126.04688 A 39.049421 39.049421 0 0 1 70.785156 125.63672 A 39.049421 39.049421 0 0 1 70.460938 125.22266 A 39.049421 39.049421 0 0 1 70.144531 124.80273 A 39.049421 39.049421 0 0 1 69.832031 124.38086 A 39.049421 39.049421 0 0 1 69.525391 123.95312 A 39.049421 39.049421 0 0 1 69.224609 123.52344 A 39.049421 39.049421 0 0 1 68.929688 123.08789 A 39.049421 39.049421 0 0 1 68.642578 122.64844 A 39.049421 39.049421 0 0 1 68.359375 122.20508 A 39.049421 39.049421 0 0 1 68.082031 121.75977 A 39.049421 39.049421 0 0 1 67.810547 121.30859 A 39.049421 39.049421 0 0 1 67.546875 120.85547 A 39.049421 39.049421 0 0 1 67.289062 120.39648 A 39.049421 39.049421 0 0 1 67.035156 119.93555 A 39.049421 39.049421 0 0 1 66.789062 119.47266 A 39.049421 39.049421 0 0 1 66.548828 119.00391 A 39.049421 39.049421 0 0 1 66.316406 118.5332 A 39.049421 39.049421 0 0 1 66.089844 118.06055 A 39.049421 39.049421 0 0 1 65.867188 117.58398 A 39.049421 39.049421 0 0 1 65.654297 117.10352 A 39.049421 39.049421 0 0 1 65.445312 116.62109 A 39.049421 39.049421 0 0 1 65.244141 116.13477 A 39.049421 39.049421 0 0 1 65.048828 115.64648 A 39.049421 39.049421 0 0 1 64.861328 115.15625 A 39.049421 39.049421 0 0 1 64.679688 114.66406 A 39.049421 39.049421 0 0 1 64.503906 114.16797 A 39.049421 39.049421 0 0 1 64.335938 113.66992 A 39.049421 39.049421 0 0 1 64.173828 113.16992 A 39.049421 39.049421 0 0 1 64.019531 112.66797 A 39.049421 39.049421 0 0 1 63.871094 112.16406 A 39.049421 39.049421 0 0 1 63.730469 111.6582 A 39.049421 39.049421 0 0 1 63.595703 111.15039 A 39.049421 39.049421 0 0 1 63.46875 110.64062 A 39.049421 39.049421 0 0 1 63.347656 110.12891 A 39.049421 39.049421 0 0 1 63.234375 109.61523 A 39.049421 39.049421 0 0 1 63.126953 109.10156 A 39.049421 39.049421 0 0 1 63.027344 108.58594 A 39.049421 39.049421 0 0 1 62.933594 108.06836 A 39.049421 39.049421 0 0 1 62.847656 107.55078 A 39.049421 39.049421 0 0 1 62.769531 107.03125 A 39.049421 39.049421 0 0 1 62.697266 106.50977 A 39.049421 39.049421 0 0 1 62.630859 105.98828 A 39.049421 39.049421 0 0 1 62.574219 105.4668 A 39.049421 39.049421 0 0 1 62.521484 104.94336 A 39.049421 39.049421 0 0 1 62.478516 104.41992 A 39.049421 39.049421 0 0 1 62.441406 103.89648 A 39.049421 39.049421 0 0 1 62.412109 103.37109 A 39.049421 39.049421 0 0 1 62.388672 102.8457 A 39.049421 39.049421 0 0 1 62.373047 102.32031 A 39.049421 39.049421 0 0 1 62.363281 101.79492 A 39.049421 39.049421 0 0 1 62.361328 101.41211 A 39.049421 39.049421 0 0 1 62.365234 100.88672 A 39.049421 39.049421 0 0 1 62.376953 100.36133 A 39.049421 39.049421 0 0 1 62.394531 99.835938 A 39.049421 39.049421 0 0 1 62.417969 99.310547 A 39.049421 39.049421 0 0 1 62.451172 98.787109 A 39.049421 39.049421 0 0 1 62.490234 98.261719 A 39.049421 39.049421 0 0 1 62.535156 97.738281 A 39.049421 39.049421 0 0 1 62.587891 97.216797 A 39.049421 39.049421 0 0 1 62.648438 96.693359 A 39.049421 39.049421 0 0 1 62.714844 96.171875 A 39.049421 39.049421 0 0 1 62.789062 95.652344 A 39.049421 39.049421 0 0 1 62.871094 95.132812 A 39.049421 39.049421 0 0 1 62.958984 94.615234 A 39.049421 39.049421 0 0 1 63.052734 94.097656 A 39.049421 39.049421 0 0 1 63.154297 93.582031 A 39.049421 39.049421 0 0 1 63.263672 93.068359 A 39.049421 39.049421 0 0 1 63.378906 92.556641 A 39.049421 39.049421 0 0 1 63.501953 92.044922 A 39.049421 39.049421 0 0 1 63.630859 91.535156 A 39.049421 39.049421 0 0 1 63.767578 91.029297 A 39.049421 39.049421 0 0 1 63.910156 90.523438 A 39.049421 39.049421 0 0 1 64.060547 90.019531 A 39.049421 39.049421 0 0 1 64.216797 89.517578 A 39.049421 39.049421 0 0 1 64.380859 89.017578 A 39.049421 39.049421 0 0 1 64.550781 88.521484 A 39.049421 39.049421 0 0 1 64.728516 88.027344 A 39.049421 39.049421 0 0 1 64.912109 87.533203 A 39.049421 39.049421 0 0 1 65.101562 87.044922 A 39.049421 39.049421 0 0 1 65.298828 86.556641 A 39.049421 39.049421 0 0 1 65.501953 86.072266 A 39.049421 39.049421 0 0 1 65.710938 85.589844 A 39.049421 39.049421 0 0 1 65.927734 85.111328 A 39.049421 39.049421 0 0 1 66.150391 84.634766 A 39.049421 39.049421 0 0 1 66.378906 84.162109 A 39.049421 39.049421 0 0 1 66.613281 83.693359 A 39.049421 39.049421 0 0 1 66.855469 83.226562 A 39.049421 39.049421 0 0 1 67.103516 82.761719 A 39.049421 39.049421 0 0 1 67.357422 82.302734 A 39.049421 39.049421 0 0 1 67.617188 81.845703 A 39.049421 39.049421 0 0 1 67.884766 81.392578 A 39.049421 39.049421 0 0 1 68.15625 80.943359 A 39.049421 39.049421 0 0 1 68.435547 80.498047 A 39.049421 39.049421 0 0 1 68.71875 80.056641 A 39.049421 39.049421 0 0 1 69.009766 79.619141 A 39.049421 39.049421 0 0 1 69.304688 79.183594 A 39.049421 39.049421 0 0 1 69.607422 78.753906 A 39.049421 39.049421 0 0 1 69.916016 78.328125 A 39.049421 39.049421 0 0 1 70.228516 77.90625 A 39.049421 39.049421 0 0 1 70.548828 77.488281 A 39.049421 39.049421 0 0 1 70.873047 77.076172 A 39.049421 39.049421 0 0 1 71.203125 76.667969 A 39.049421 39.049421 0 0 1 71.539062 76.263672 A 39.049421 39.049421 0 0 1 71.878906 75.863281 A 39.049421 39.049421 0 0 1 72.226562 75.46875 A 39.049421 39.049421 0 0 1 72.578125 75.078125 A 39.049421 39.049421 0 0 1 72.935547 74.691406 A 39.049421 39.049421 0 0 1 73.296875 74.310547 A 39.049421 39.049421 0 0 1 73.664062 73.935547 A 39.049421 39.049421 0 0 1 74.037109 73.564453 A 39.049421 39.049421 0 0 1 74.414062 73.199219 A 39.049421 39.049421 0 0 1 74.794922 72.837891 A 39.049421 39.049421 0 0 1 75.181641 72.482422 A 39.049421 39.049421 0 0 1 75.574219 72.132812 A 39.049421 39.049421 0 0 1 75.970703 71.787109 A 39.049421 39.049421 0 0 1 76.371094 71.447266 A 39.049421 39.049421 0 0 1 76.777344 71.113281 A 39.049421 39.049421 0 0 1 77.1875 70.785156 A 39.049421 39.049421 0 0 1 77.601562 70.460938 A 39.049421 39.049421 0 0 1 78.019531 70.144531 A 39.049421 39.049421 0 0 1 78.443359 69.832031 A 39.049421 39.049421 0 0 1 78.869141 69.525391 A 39.049421 39.049421 0 0 1 79.300781 69.224609 A 39.049421 39.049421 0 0 1 79.736328 68.929688 A 39.049421 39.049421 0 0 1 80.175781 68.642578 A 39.049421 39.049421 0 0 1 80.617188 68.359375 A 39.049421 39.049421 0 0 1 81.064453 68.082031 A 39.049421 39.049421 0 0 1 81.515625 67.810547 A 39.049421 39.049421 0 0 1 81.96875 67.546875 A 39.049421 39.049421 0 0 1 82.425781 67.289062 A 39.049421 39.049421 0 0 1 82.886719 67.035156 A 39.049421 39.049421 0 0 1 83.351562 66.789062 A 39.049421 39.049421 0 0 1 83.818359 66.548828 A 39.049421 39.049421 0 0 1 84.289062 66.316406 A 39.049421 39.049421 0 0 1 84.763672 66.089844 A 39.049421 39.049421 0 0 1 85.240234 65.867188 A 39.049421 39.049421 0 0 1 85.720703 65.654297 A 39.049421 39.049421 0 0 1 86.203125 65.445312 A 39.049421 39.049421 0 0 1 86.6875 65.244141 A 39.049421 39.049421 0 0 1 87.175781 65.048828 A 39.049421 39.049421 0 0 1 87.666016 64.861328 A 39.049421 39.049421 0 0 1 88.160156 64.679688 A 39.049421 39.049421 0 0 1 88.654297 64.503906 A 39.049421 39.049421 0 0 1 89.152344 64.335938 A 39.049421 39.049421 0 0 1 89.652344 64.173828 A 39.049421 39.049421 0 0 1 90.154297 64.019531 A 39.049421 39.049421 0 0 1 90.658203 63.871094 A 39.049421 39.049421 0 0 1 91.166016 63.730469 A 39.049421 39.049421 0 0 1 91.673828 63.595703 A 39.049421 39.049421 0 0 1 92.183594 63.46875 A 39.049421 39.049421 0 0 1 92.693359 63.347656 A 39.049421 39.049421 0 0 1 93.207031 63.234375 A 39.049421 39.049421 0 0 1 93.722656 63.126953 A 39.049421 39.049421 0 0 1 94.238281 63.027344 A 39.049421 39.049421 0 0 1 94.753906 62.933594 A 39.049421 39.049421 0 0 1 95.273438 62.847656 A 39.049421 39.049421 0 0 1 95.792969 62.769531 A 39.049421 39.049421 0 0 1 96.3125 62.697266 A 39.049421 39.049421 0 0 1 96.833984 62.630859 A 39.049421 39.049421 0 0 1 97.357422 62.574219 A 39.049421 39.049421 0 0 1 97.878906 62.521484 A 39.049421 39.049421 0 0 1 98.404297 62.478516 A 39.049421 39.049421 0 0 1 98.927734 62.441406 A 39.049421 39.049421 0 0 1 99.451172 62.412109 A 39.049421 39.049421 0 0 1 99.976562 62.388672 A 39.049421 39.049421 0 0 1 100.50195 62.373047 A 39.049421 39.049421 0 0 1 101.02734 62.363281 A 39.049421 39.049421 0 0 1 101.41211 62.361328 z "
       style="fill:#e1d033;fill-opacity:1;stroke-width:2.70247"
       id="path851" />
  </g>
</svg>
